<?xml version="1.0" standalone="no"?>
<!DOCTYPE svg PUBLIC "-//W3C//DTD SVG 20010904//EN"
 "http://www.w3.org/TR/2001/REC-SVG-20010904/DTD/svg10.dtd">
<svg version="1.0" xmlns="http://www.w3.org/2000/svg"
 width="638.000000pt" height="212.000000pt" viewBox="0 0 638.000000 212.000000"
 preserveAspectRatio="xMidYMid meet">

<g transform="translate(0.000000,212.000000) scale(0.100000,-0.100000)"
fill="#000000" stroke="none">
<path d="M3422 2044 c-21 -14 -22 -23 -22 -130 0 -143 5 -154 70 -154 65 0 70
11 70 149 0 98 -2 113 -20 131 -24 24 -67 26 -98 4z"/>
<path d="M3875 1826 c-61 -26 -105 -103 -105 -183 0 -31 -2 -33 -35 -33 -32 0
-35 -2 -35 -29 0 -26 4 -30 33 -33 l32 -3 3 -212 2 -213 35 0 35 0 2 213 3
212 90 0 90 0 3 -212 2 -213 35 0 35 0 0 245 0 245 -130 0 -130 0 0 33 c1 52
33 112 70 127 32 13 50 11 131 -16 10 -3 19 4 27 21 16 34 17 30 -22 49 -41
19 -129 20 -171 2z"/>
<path d="M668 1680 c-225 -41 -413 -162 -523 -340 -15 -24 -41 -80 -58 -125
-39 -105 -49 -280 -22 -400 42 -191 183 -367 365 -458 145 -72 195 -82 400
-82 191 1 259 13 405 73 l70 29 3 338 c2 241 -1 342 -9 351 -16 19 -172 19
-188 1 -7 -9 -12 -105 -13 -282 l-3 -269 -60 -20 c-48 -16 -89 -20 -205 -20
-170 -1 -231 15 -342 90 -138 93 -218 245 -218 414 0 189 113 368 285 450 70
33 187 60 265 60 83 0 222 -30 310 -67 90 -38 127 -43 141 -21 5 7 8 51 7 98
l-3 85 -55 27 c-92 45 -218 70 -370 74 -74 1 -156 -1 -182 -6z"/>
<path d="M1696 1654 c-14 -14 -16 -89 -16 -674 0 -585 2 -660 16 -674 19 -20
153 -23 172 -4 9 9 12 174 12 680 0 765 12 688 -104 688 -45 0 -69 -5 -80 -16z"/>
<path d="M2630 1604 c-81 -35 -130 -112 -138 -215 -8 -109 34 -201 111 -241
59 -31 148 -31 200 0 21 12 40 22 43 22 10 0 3 -63 -12 -100 -31 -78 -132
-106 -233 -65 -42 18 -44 18 -57 0 -21 -29 -17 -41 22 -60 88 -42 220 -27 285
32 61 55 68 93 70 381 l1 247 -31 3 c-26 3 -31 0 -31 -17 0 -12 -1 -21 -2 -21
-2 0 -25 11 -52 25 -57 29 -123 32 -176 9z m158 -70 c50 -32 63 -71 60 -172
l-3 -93 -42 -40 c-37 -34 -48 -39 -90 -39 -73 0 -123 41 -142 117 -20 77 -8
142 36 194 49 58 121 71 181 33z"/>
<path d="M3156 1595 c-44 -30 -46 -30 -46 -5 0 16 -7 20 -35 20 l-35 0 2 -242
3 -243 33 -3 32 -3 0 130 c0 71 5 154 11 183 15 66 62 118 108 118 29 0 31 3
31 35 0 33 -2 35 -34 35 -19 0 -49 -11 -70 -25z"/>
<path d="M3370 1602 c-48 -19 -58 -37 -37 -66 13 -18 15 -18 48 0 19 9 55 18
81 18 59 1 99 -32 101 -85 l2 -34 -68 -7 c-130 -13 -197 -67 -205 -164 -6 -68
21 -115 78 -138 56 -22 99 -20 156 9 27 14 50 25 52 25 1 0 2 -9 2 -20 0 -16
7 -20 33 -20 l32 0 -3 188 c-3 164 -6 192 -24 231 -16 32 -31 48 -62 62 -51
23 -127 23 -186 1z m200 -282 c0 -91 -45 -140 -128 -140 -27 0 -45 7 -58 21
-25 27 -25 91 0 118 23 25 95 49 149 50 l37 1 0 -50z"/>
<path d="M4335 1596 c-92 -42 -137 -118 -139 -231 -2 -174 127 -281 295 -246
76 16 95 31 79 60 -10 20 -16 22 -43 15 -63 -16 -153 -11 -183 12 -48 35 -67
70 -72 128 -6 80 5 122 44 165 54 60 110 69 221 36 18 -6 25 -2 33 21 12 31 8
37 -39 53 -57 19 -140 13 -196 -13z"/>
<path d="M4717 1606 c-58 -21 -68 -33 -55 -62 8 -17 16 -23 27 -18 9 4 35 14
59 22 81 28 152 -15 152 -93 0 -23 -4 -25 -43 -25 -64 0 -142 -27 -182 -61
-86 -75 -62 -215 42 -250 45 -14 115 -5 158 21 l33 20 5 -20 c4 -15 13 -20 37
-20 l33 0 -5 188 c-5 208 -14 244 -71 284 -39 28 -135 35 -190 14z m183 -296
c0 -51 -4 -64 -28 -91 -23 -26 -38 -33 -79 -36 -65 -7 -93 17 -93 76 0 64 65
108 163 110 l37 1 0 -60z"/>
<path d="M3770 626 l0 -356 35 0 35 0 -2 353 -3 352 -32 3 -33 3 0 -355z"/>
<path d="M3048 844 c-23 -12 -28 -21 -28 -54 0 -39 -1 -40 -35 -40 -32 0 -35
-2 -35 -30 0 -27 3 -30 34 -30 l34 0 4 -172 c5 -233 20 -262 136 -256 56 3 57
4 57 33 0 29 -1 30 -40 27 -32 -3 -45 2 -60 18 -18 20 -20 37 -20 184 l0 161
68 3 c67 3 67 3 67 32 0 29 0 29 -67 32 l-68 3 -3 53 c-2 28 -6 52 -10 52 -4
-1 -19 -8 -34 -16z"/>
<path d="M5728 848 c-23 -8 -27 -16 -30 -51 -3 -41 -4 -42 -40 -45 -34 -3 -38
-6 -38 -32 0 -26 4 -29 38 -32 l37 -3 5 -180 c3 -114 9 -188 17 -201 17 -30
62 -46 119 -42 47 3 49 4 52 35 l3 33 -44 -6 c-71 -10 -77 6 -77 203 l0 163
65 0 65 0 0 30 0 30 -65 0 -65 0 0 49 c0 57 -4 62 -42 49z"/>
<path d="M2626 765 c-56 -20 -86 -45 -110 -91 -19 -34 -21 -60 -24 -221 l-3
-183 35 0 35 0 3 179 3 180 30 31 c43 45 92 57 140 34 68 -32 75 -55 75 -251
l0 -173 35 0 35 0 0 178 c0 165 -2 181 -22 222 -43 84 -147 127 -232 95z"/>
<path d="M5296 768 c-49 -14 -112 -76 -125 -125 -6 -21 -11 -113 -11 -205 l0
-168 34 0 35 0 3 179 c3 175 4 180 28 207 67 72 165 62 204 -21 13 -26 16 -68
16 -199 l0 -166 35 0 35 0 0 178 c0 165 -2 181 -22 222 -42 82 -139 123 -232
98z"/>
<path d="M3385 743 c-46 -24 -65 -44 -93 -98 -23 -43 -27 -62 -27 -140 0 -73
4 -98 22 -130 44 -84 104 -115 215 -114 96 1 144 18 140 50 -4 36 -13 40 -66
24 -68 -21 -104 -19 -156 8 -46 23 -74 64 -86 125 l-6 32 171 0 171 0 0 48 c0
93 -37 164 -101 197 -38 20 -145 19 -184 -2z m170 -73 c27 -25 50 -84 40 -100
-4 -6 -57 -10 -131 -10 -105 0 -124 2 -124 15 0 36 51 103 90 118 31 13 101
-1 125 -23z"/>
<path d="M4265 745 c-46 -25 -86 -66 -105 -110 -59 -131 -16 -291 91 -346 57
-29 159 -24 207 9 l32 23 0 -41 c0 -22 -6 -53 -14 -68 -46 -89 -134 -105 -267
-48 -11 5 -19 -1 -27 -19 -16 -35 -17 -34 31 -55 57 -26 176 -27 232 -1 49 22
90 68 106 119 6 21 13 147 16 290 l6 252 -37 0 c-30 0 -36 -4 -36 -21 0 -20 0
-20 -32 3 -43 30 -157 37 -203 13z m156 -60 c53 -28 69 -68 69 -174 l0 -93
-38 -39 c-44 -43 -76 -54 -129 -44 -109 20 -154 186 -82 301 36 58 118 80 180
49z"/>
<path d="M4785 744 c-79 -41 -116 -107 -123 -214 -5 -93 9 -149 51 -197 46
-52 98 -73 182 -72 86 0 139 17 143 44 5 39 -9 45 -69 28 -68 -19 -136 -11
-175 19 -29 24 -63 90 -64 126 0 22 0 22 171 22 l172 0 -5 64 c-7 77 -38 140
-87 173 -42 28 -148 32 -196 7z m145 -59 c31 -16 56 -54 61 -95 l4 -25 -127
-3 c-125 -3 -128 -2 -128 19 0 31 37 87 68 104 35 19 86 19 122 0z"/>
<path d="M6038 731 c-68 -43 -103 -120 -103 -226 0 -100 29 -164 94 -210 38
-26 52 -30 124 -33 125 -5 189 24 155 71 -12 15 -17 15 -53 2 -121 -43 -226
12 -248 133 l-6 32 169 0 c193 0 188 -3 170 89 -22 119 -81 171 -192 171 -54
0 -72 -5 -110 -29z m180 -56 c33 -28 57 -77 48 -100 -4 -12 -27 -15 -125 -15
-66 0 -122 4 -125 9 -15 24 38 104 79 121 41 17 92 11 123 -15z"/>
<path d="M2290 510 l0 -240 35 0 35 0 0 240 0 240 -35 0 -35 0 0 -240z"/>
<path d="M3970 510 l0 -240 35 0 35 0 0 240 0 240 -35 0 -35 0 0 -240z"/>
</g>
</svg>
