<?xml version="1.0" standalone="no"?>
<!DOCTYPE svg PUBLIC "-//W3C//DTD SVG 20010904//EN"
 "http://www.w3.org/TR/2001/REC-SVG-20010904/DTD/svg10.dtd">
<svg version="1.0" xmlns="http://www.w3.org/2000/svg"
 width="632.000000pt" height="395.000000pt" viewBox="0 0 632.000000 395.000000"
 preserveAspectRatio="xMidYMid meet">

<g transform="translate(0.000000,395.000000) scale(0.100000,-0.100000)"
fill="#000000" stroke="none">
<path d="M5113 2315 c-18 -8 -33 -21 -33 -30 0 -25 39 -75 54 -69 7 3 18 -7
24 -21 25 -54 72 -7 72 72 0 32 -5 45 -19 53 -26 14 -59 12 -98 -5z"/>
<path d="M4004 2296 c-40 -18 -58 -68 -49 -135 5 -39 2 -57 -14 -89 -27 -52
-27 -62 0 -28 11 14 26 26 34 26 7 0 23 8 35 18 l23 19 -21 21 c-16 16 -22 34
-22 67 0 25 3 45 6 45 3 0 17 -9 31 -20 14 -11 34 -20 44 -20 15 0 19 -10 21
-51 2 -34 8 -54 18 -59 8 -4 33 -16 55 -26 22 -10 43 -20 48 -22 4 -2 7 16 7
40 0 78 -108 229 -162 228 -13 -1 -37 -7 -54 -14z"/>
<path d="M1873 2243 c-31 -6 -46 -28 -35 -50 6 -10 15 -30 21 -45 7 -18 18
-28 31 -28 16 0 20 -7 20 -30 0 -37 29 -41 59 -8 25 26 55 113 46 129 -18 28
-85 43 -142 32z"/>
<path d="M1941 1927 c-13 -6 -34 -25 -45 -40 -20 -27 -21 -43 -24 -258 l-3
-230 -87 3 c-76 3 -87 5 -90 22 -5 27 15 36 80 36 l56 0 -9 33 c-4 17 -11 44
-14 59 l-5 27 -82 -34 c-45 -19 -88 -41 -95 -48 -16 -16 -40 -189 -49 -356
l-7 -124 -46 -20 c-25 -11 -47 -24 -49 -28 -2 -5 -19 -9 -38 -9 l-34 0 0 280
0 280 -155 0 -155 0 0 -29 c0 -51 -9 -61 -54 -61 -22 0 -48 -4 -56 -10 -11 -7
-9 -11 13 -19 16 -6 37 -11 48 -11 23 0 16 -19 -20 -57 -25 -26 -26 -33 -6
-33 8 0 19 -9 25 -21 9 -16 8 -26 -4 -44 -14 -21 -20 -23 -42 -14 -15 5 -29 7
-31 5 -9 -8 8 -26 24 -26 14 0 13 -4 -5 -23 -19 -21 -22 -34 -22 -120 l0 -97
-333 -3 c-182 -1 984 -2 2593 -2 1609 0 2793 1 2632 2 -161 2 -291 7 -288 11
2 4 -4 8 -15 8 -10 0 -19 -4 -19 -8 0 -4 -22 -8 -48 -8 l-49 0 -6 99 c-8 111
-28 224 -52 291 -12 36 -45 201 -45 233 0 4 50 7 111 7 71 0 108 4 104 10 -3
6 -52 10 -111 10 l-104 0 0 31 c0 31 0 31 -44 25 -40 -6 -153 6 -190 20 -13 5
-15 -1 -13 -33 l2 -38 -237 -3 c-147 -1 -238 -6 -238 -12 0 -6 89 -10 239 -10
l238 0 7 -87 c4 -49 14 -133 21 -188 8 -55 15 -148 15 -207 l0 -108 -42 -20
c-35 -17 -62 -20 -167 -20 -140 0 -171 5 -171 27 0 10 6 13 18 8 13 -5 14 -3
5 6 -16 16 -36 1 -30 -22 5 -18 -3 -19 -158 -19 -155 0 -163 1 -158 19 7 25
-16 37 -33 17 -8 -9 -9 -11 -2 -6 17 14 28 12 28 -4 0 -17 -31 -26 -99 -26
-47 0 -52 2 -46 18 28 65 29 72 18 83 -20 20 -53 1 -53 -32 0 -47 -31 -69 -95
-69 l-55 0 0 35 c0 19 -3 35 -7 35 -5 0 -39 -16 -77 -35 -66 -34 -72 -35 -181
-35 -106 0 -113 1 -108 19 6 23 -14 38 -30 22 -9 -9 -8 -11 6 -6 11 5 17 2 17
-8 0 -23 -32 -27 -246 -27 l-201 0 1 23 c1 13 -5 22 -14 22 -9 0 -15 -9 -14
-22 l1 -23 -502 0 -502 0 1 23 c1 19 -5 22 -39 25 -22 1 -59 5 -82 8 l-43 5 0
175 0 174 70 0 c54 0 72 4 76 15 4 9 19 15 38 15 18 0 37 5 44 12 9 9 12 73
12 225 0 240 -5 264 -65 289 -44 18 -269 19 -304 1z m-206 -619 c-4 -40 -9
-120 -11 -177 -2 -57 -9 -110 -15 -117 -5 -7 -24 -17 -41 -23 -36 -13 -38 -37
18 217 40 180 62 225 49 100z m231 62 l64 0 0 -174 0 -175 -57 -6 c-32 -3 -67
-7 -78 -8 -14 -1 -20 -9 -19 -24 0 -20 -4 -23 -43 -23 -52 0 -51 -5 -17 143
21 91 54 259 54 276 0 2 7 0 16 -3 9 -3 45 -6 80 -6z m3355 -214 c11 -34 23
-83 26 -109 6 -46 5 -48 -26 -60 -17 -6 -31 -15 -31 -19 0 -4 -22 -8 -50 -8
-41 0 -50 3 -50 18 0 10 4 22 9 27 11 13 30 134 38 248 l6 92 29 -64 c16 -36
38 -92 49 -125z m-2061 -171 c0 -8 -4 -15 -10 -15 -5 0 -10 7 -10 15 0 8 5 15
10 15 6 0 10 -7 10 -15z m-1065 -15 c4 -6 -45 -10 -140 -10 -95 0 -144 4 -140
10 4 6 62 10 140 10 78 0 136 -4 140 -10z"/>
<path d="M4540 1891 c0 -19 33 -87 53 -108 20 -23 25 -23 254 -23 220 0 233 1
233 18 0 15 -13 22 -57 32 -139 32 -221 80 -113 66 59 -8 182 3 174 15 -7 12
-544 12 -544 0z m255 -51 c8 -16 15 -31 15 -35 0 -3 -31 -5 -70 -5 -67 0 -70
1 -85 30 -8 16 -15 31 -15 35 0 3 31 5 70 5 67 0 70 -1 85 -30z"/>
<path d="M2980 1815 c0 -13 22 -15 133 -15 l132 -1 35 -62 c22 -38 43 -63 55
-65 12 -2 16 0 9 5 -12 9 -64 102 -64 114 0 5 65 9 145 9 122 0 145 2 145 15
0 13 -39 15 -295 15 -256 0 -295 -2 -295 -15z"/>
<path d="M4063 1806 c2 -6 18 -12 36 -14 41 -4 33 14 -9 20 -19 3 -29 1 -27
-6z"/>
<path d="M1430 1765 c0 -18 21 -18 75 0 l40 13 -57 1 c-45 1 -58 -2 -58 -14z"/>
<path d="M3560 1760 c0 -5 5 -10 11 -10 5 0 7 5 4 10 -3 6 -8 10 -11 10 -2 0
-4 -4 -4 -10z"/>
<path d="M3610 1761 c0 -5 5 -13 10 -16 6 -3 10 -2 10 4 0 5 -4 13 -10 16 -5
3 -10 2 -10 -4z"/>
<path d="M3660 1761 c0 -5 5 -13 10 -16 6 -3 10 -2 10 4 0 5 -4 13 -10 16 -5
3 -10 2 -10 -4z"/>
<path d="M2993 1733 c32 -2 81 -2 110 0 29 2 3 3 -58 3 -60 0 -84 -1 -52 -3z"/>
<path d="M3580 1720 c0 -5 5 -10 11 -10 5 0 7 5 4 10 -3 6 -8 10 -11 10 -2 0
-4 -4 -4 -10z"/>
<path d="M3630 1720 c0 -5 5 -10 10 -10 6 0 10 5 10 10 0 6 -4 10 -10 10 -5 0
-10 -4 -10 -10z"/>
<path d="M3680 1720 c0 -5 5 -10 10 -10 6 0 10 5 10 10 0 6 -4 10 -10 10 -5 0
-10 -4 -10 -10z"/>
<path d="M2940 1700 c0 -6 42 -10 105 -10 63 0 105 4 105 10 0 6 -42 10 -105
10 -63 0 -105 -4 -105 -10z"/>
<path d="M4610 1570 c0 -5 5 -10 11 -10 5 0 7 5 4 10 -3 6 -8 10 -11 10 -2 0
-4 -4 -4 -10z"/>
<path d="M5536 1002 c-2 -4 4 -8 14 -8 10 0 16 4 14 8 -3 4 -9 8 -14 8 -5 0
-11 -4 -14 -8z"/>
</g>
</svg>
